<svg width="18" height="21" viewBox="0 0 18 21" fill="none" xmlns="http://www.w3.org/2000/svg">
<path d="M14.5 7.33317H16.3333C16.5764 7.33317 16.8096 7.42975 16.9815 7.60166C17.1534 7.77357 17.25 8.00672 17.25 8.24984V19.2498C17.25 19.493 17.1534 19.7261 16.9815 19.898C16.8096 20.0699 16.5764 20.1665 16.3333 20.1665H1.66667C1.42355 20.1665 1.19039 20.0699 1.01849 19.898C0.846577 19.7261 0.75 19.493 0.75 19.2498V8.24984C0.75 8.00672 0.846577 7.77357 1.01849 7.60166C1.19039 7.42975 1.42355 7.33317 1.66667 7.33317H3.5V6.4165C3.5 4.95781 4.07946 3.55887 5.11091 2.52742C6.14236 1.49597 7.54131 0.916504 9 0.916504C10.4587 0.916504 11.8576 1.49597 12.8891 2.52742C13.9205 3.55887 14.5 4.95781 14.5 6.4165V7.33317ZM2.58333 9.1665V18.3332H15.4167V9.1665H2.58333ZM8.08333 12.8332H9.91667V14.6665H8.08333V12.8332ZM4.41667 12.8332H6.25V14.6665H4.41667V12.8332ZM11.75 12.8332H13.5833V14.6665H11.75V12.8332ZM12.6667 7.33317V6.4165C12.6667 5.44404 12.2804 4.51141 11.5927 3.82378C10.9051 3.13615 9.97246 2.74984 9 2.74984C8.02754 2.74984 7.09491 3.13615 6.40728 3.82378C5.71964 4.51141 5.33333 5.44404 5.33333 6.4165V7.33317H12.6667Z" fill="#2FDBBC"/>
</svg>
