<svg width="22" height="22" viewBox="0 0 22 22" fill="none" xmlns="http://www.w3.org/2000/svg">
<g clip-path="url(#clip0_250_806)">
<path d="M5.99039 2.75H19.25C19.4931 2.75 19.7262 2.84658 19.8982 3.01849C20.0701 3.19039 20.1666 3.42355 20.1666 3.66667V18.3333C20.1666 18.5764 20.0701 18.8096 19.8982 18.9815C19.7262 19.1534 19.4931 19.25 19.25 19.25H5.99039C5.83951 19.25 5.69096 19.2128 5.55792 19.1416C5.42488 19.0705 5.31145 18.9676 5.22772 18.8421L0.339135 11.5088C0.238632 11.3581 0.184998 11.1811 0.184998 11C0.184998 10.8189 0.238632 10.6419 0.339135 10.4913L5.22772 3.15792C5.31145 3.03241 5.42488 2.92951 5.55792 2.85835C5.69096 2.7872 5.83951 2.74998 5.99039 2.75ZM6.4808 4.58333L2.20363 11L6.4808 17.4167H18.3333V4.58333H6.4808ZM11.9166 9.70383L14.509 7.11058L15.8061 8.40767L13.2128 11L15.8061 13.5923L14.509 14.8894L11.9166 12.2962L9.3243 14.8894L8.02722 13.5923L10.6205 11L8.02722 8.40767L9.3243 7.11058L11.9166 9.70383Z" fill="#2FDBBC"/>
</g>
<defs>
<clipPath id="clip0_250_806">
<rect width="22" height="22" fill="white"/>
</clipPath>
</defs>
</svg>
