<svg width="22" height="22" viewBox="0 0 22 22" fill="none" xmlns="http://www.w3.org/2000/svg">
<g clip-path="url(#clip0_207_331)">
<path d="M18.3334 20.1665H16.5V18.3332C16.5 17.6038 16.2103 16.9044 15.6946 16.3886C15.1788 15.8729 14.4794 15.5832 13.75 15.5832H8.25002C7.52067 15.5832 6.8212 15.8729 6.30548 16.3886C5.78975 16.9044 5.50002 17.6038 5.50002 18.3332V20.1665H3.66669V18.3332C3.66669 17.1176 4.14957 15.9518 5.00911 15.0923C5.86866 14.2327 7.03444 13.7498 8.25002 13.7498H13.75C14.9656 13.7498 16.1314 14.2327 16.9909 15.0923C17.8505 15.9518 18.3334 17.1176 18.3334 18.3332V20.1665ZM11 11.9165C10.2777 11.9165 9.56255 11.7742 8.89526 11.4978C8.22797 11.2214 7.62165 10.8163 7.11093 10.3056C6.60021 9.79487 6.19508 9.18855 5.91868 8.52126C5.64228 7.85397 5.50002 7.13877 5.50002 6.4165C5.50002 5.69423 5.64228 4.97904 5.91868 4.31175C6.19508 3.64445 6.60021 3.03814 7.11093 2.52742C7.62165 2.01669 8.22797 1.61157 8.89526 1.33517C9.56255 1.05877 10.2777 0.916504 11 0.916504C12.4587 0.916504 13.8577 1.49597 14.8891 2.52742C15.9206 3.55887 16.5 4.95781 16.5 6.4165C16.5 7.8752 15.9206 9.27414 14.8891 10.3056C13.8577 11.337 12.4587 11.9165 11 11.9165ZM11 10.0832C11.9725 10.0832 12.9051 9.69686 13.5927 9.00923C14.2804 8.3216 14.6667 7.38897 14.6667 6.4165C14.6667 5.44404 14.2804 4.51141 13.5927 3.82378C12.9051 3.13615 11.9725 2.74984 11 2.74984C10.0276 2.74984 9.09493 3.13615 8.40729 3.82378C7.71966 4.51141 7.33335 5.44404 7.33335 6.4165C7.33335 7.38897 7.71966 8.3216 8.40729 9.00923C9.09493 9.69686 10.0276 10.0832 11 10.0832Z" fill="#2D2D2D"/>
</g>
<defs>
<clipPath id="clip0_207_331">
<rect width="22" height="22" fill="white"/>
</clipPath>
</defs>
</svg>
