<svg width="22" height="22" viewBox="0 0 22 22" fill="none" xmlns="http://www.w3.org/2000/svg">
<g clip-path="url(#clip0_207_325)">
<path d="M14.0855 3.15137L17.0289 8.24987H20.1666V10.0832H19.0969L18.403 18.4093C18.3839 18.6383 18.2795 18.8519 18.1104 19.0076C17.9413 19.1633 17.7198 19.2497 17.49 19.2499H4.50998C4.28012 19.2497 4.0587 19.1633 3.8896 19.0076C3.7205 18.8519 3.61606 18.6383 3.59698 18.4093L2.90215 10.0832H1.83331V8.24987H4.97015L7.91448 3.15137L9.50215 4.06803L7.08765 8.24987H14.9114L12.4978 4.06803L14.0855 3.15137ZM17.2571 10.0832H4.7419L5.35331 17.4165H16.6457L17.2571 10.0832ZM11.9166 11.9165V15.5832H10.0833V11.9165H11.9166ZM8.24998 11.9165V15.5832H6.41665V11.9165H8.24998ZM15.5833 11.9165V15.5832H13.75V11.9165H15.5833Z" fill="#2D2D2D"/>
</g>
<defs>
<clipPath id="clip0_207_325">
<rect width="22" height="22" fill="white"/>
</clipPath>
</defs>
</svg>
