<svg width="18" height="19" viewBox="0 0 18 19" fill="none" xmlns="http://www.w3.org/2000/svg">
<path d="M7.68183 1.80246C8.55122 1.62078 9.44878 1.62078 10.3182 1.80246L11.8609 0.258789L13.158 1.55587L12.1955 2.51837C13.3288 3.17085 14.2368 4.15268 14.7988 5.33346H17.25V7.16679H15.3525C15.3947 7.46654 15.4167 7.77179 15.4167 8.08346V9.00012H17.25V10.8335H15.4167V11.7501C15.4167 12.0618 15.3947 12.367 15.3525 12.6668H17.25V14.5001H14.7988C14.2787 15.5979 13.4577 16.5256 12.4312 17.1752C11.4046 17.8247 10.2148 18.1696 9 18.1696C7.78521 18.1696 6.59537 17.8247 5.56884 17.1752C4.54231 16.5256 3.72126 15.5979 3.20117 14.5001H0.75V12.6668H2.6475C2.60442 12.3631 2.58298 12.0568 2.58333 11.7501V10.8335H0.75V9.00012H2.58333V8.08346C2.58333 7.77179 2.60533 7.46654 2.6475 7.16679H0.75V5.33346H3.20117C3.76306 4.15235 4.67105 3.17018 5.8045 2.51746L4.842 1.55496L6.14 0.259706L7.68275 1.80337L7.68183 1.80246ZM9 3.50012C7.78442 3.50012 6.61864 3.98301 5.75909 4.84255C4.89955 5.70209 4.41667 6.86788 4.41667 8.08346V11.7501C4.41667 12.9657 4.89955 14.1315 5.75909 14.991C6.61864 15.8506 7.78442 16.3335 9 16.3335C10.2156 16.3335 11.3814 15.8506 12.2409 14.991C13.1004 14.1315 13.5833 12.9657 13.5833 11.7501V8.08346C13.5833 6.86788 13.1004 5.70209 12.2409 4.84255C11.3814 3.98301 10.2156 3.50012 9 3.50012ZM6.25 10.8335H11.75V12.6668H6.25V10.8335ZM6.25 7.16679H11.75V9.00012H6.25V7.16679Z" fill="#2FDBBC"/>
</svg>
