<svg width="22" height="22" viewBox="0 0 22 22" fill="none" xmlns="http://www.w3.org/2000/svg">
<g clip-path="url(#clip0_70_1091)">
<path d="M11 1.8335C16.0627 1.8335 20.1667 5.93741 20.1667 11.0002C20.1667 16.0629 16.0627 20.1668 11 20.1668C5.93725 20.1668 1.83333 16.0629 1.83333 11.0002H3.66667C3.66667 15.05 6.95017 18.3335 11 18.3335C15.0498 18.3335 18.3333 15.05 18.3333 11.0002C18.3333 6.95033 15.0498 3.66683 11 3.66683C8.47917 3.66683 6.25533 4.93825 4.93625 6.87516H7.33333V8.7085H1.83333V3.2085H3.66667V5.50016C5.33867 3.27266 8.00158 1.8335 11 1.8335ZM11.9167 6.41683V10.6197L14.8894 13.5925L13.5923 14.8896L10.0833 11.3787V6.41683H11.9167Z" fill="#2FDBBC"/>
</g>
<defs>
<clipPath id="clip0_70_1091">
<rect width="22" height="22" fill="white"/>
</clipPath>
</defs>
</svg>
