<svg width="22" height="22" viewBox="0 0 22 22" fill="none" xmlns="http://www.w3.org/2000/svg">
<rect width="22" height="22" rx="5" fill="#F77272"/>
<g clip-path="url(#clip0_64_1021)">
<path d="M14.75 6.5H18.5V8H17V17.75C17 17.9489 16.921 18.1397 16.7803 18.2803C16.6397 18.421 16.4489 18.5 16.25 18.5H5.75C5.55109 18.5 5.36032 18.421 5.21967 18.2803C5.07902 18.1397 5 17.9489 5 17.75V8H3.5V6.5H7.25V4.25C7.25 4.05109 7.32902 3.86032 7.46967 3.71967C7.61032 3.57902 7.80109 3.5 8 3.5H14C14.1989 3.5 14.3897 3.57902 14.5303 3.71967C14.671 3.86032 14.75 4.05109 14.75 4.25V6.5ZM15.5 8H6.5V17H15.5V8ZM12.0605 12.5L13.3865 13.826L12.326 14.8865L11 13.5605L9.674 14.8865L8.6135 13.826L9.9395 12.5L8.6135 11.174L9.674 10.1135L11 11.4395L12.326 10.1135L13.3865 11.174L12.0605 12.5ZM8.75 5V6.5H13.25V5H8.75Z" fill="white"/>
</g>
<defs>
<clipPath id="clip0_64_1021">
<rect width="18" height="18" fill="white" transform="translate(2 2)"/>
</clipPath>
</defs>
</svg>
