<svg width="22" height="22" viewBox="0 0 22 22" fill="none" xmlns="http://www.w3.org/2000/svg">
<g clip-path="url(#clip0_207_1155)">
<path d="M18.3333 20.167H16.5V18.3337C16.5 17.6043 16.2103 16.9048 15.6945 16.3891C15.1788 15.8734 14.4793 15.5837 13.75 15.5837H8.24999C7.52064 15.5837 6.82117 15.8734 6.30545 16.3891C5.78972 16.9048 5.49999 17.6043 5.49999 18.3337V20.167H3.66666V18.3337C3.66666 17.1181 4.14954 15.9523 5.00908 15.0928C5.86863 14.2332 7.03441 13.7503 8.24999 13.7503H13.75C14.9656 13.7503 16.1314 14.2332 16.9909 15.0928C17.8504 15.9523 18.3333 17.1181 18.3333 18.3337V20.167ZM11 11.917C10.2777 11.917 9.56252 11.7747 8.89523 11.4983C8.22794 11.2219 7.62162 10.8168 7.1109 10.3061C6.60018 9.79536 6.19505 9.18904 5.91865 8.52175C5.64225 7.85446 5.49999 7.13926 5.49999 6.41699C5.49999 5.69472 5.64225 4.97952 5.91865 4.31223C6.19505 3.64494 6.60018 3.03863 7.1109 2.5279C7.62162 2.01718 8.22794 1.61206 8.89523 1.33565C9.56252 1.05925 10.2777 0.916992 11 0.916992C12.4587 0.916992 13.8576 1.49645 14.8891 2.5279C15.9205 3.55936 16.5 4.9583 16.5 6.41699C16.5 7.87568 15.9205 9.27463 14.8891 10.3061C13.8576 11.3375 12.4587 11.917 11 11.917ZM11 10.0837C11.9724 10.0837 12.9051 9.69735 13.5927 9.00972C14.2803 8.32208 14.6667 7.38945 14.6667 6.41699C14.6667 5.44453 14.2803 4.5119 13.5927 3.82427C12.9051 3.13663 11.9724 2.75033 11 2.75033C10.0275 2.75033 9.0949 3.13663 8.40726 3.82427C7.71963 4.5119 7.33332 5.44453 7.33332 6.41699C7.33332 7.38945 7.71963 8.32208 8.40726 9.00972C9.0949 9.69735 10.0275 10.0837 11 10.0837Z" fill="#2FDBBC"/>
</g>
<defs>
<clipPath id="clip0_207_1155">
<rect width="22" height="22" fill="white"/>
</clipPath>
</defs>
</svg>
