<svg width="22" height="22" viewBox="0 0 22 22" fill="none" xmlns="http://www.w3.org/2000/svg">
<g clip-path="url(#clip0_207_322)">
<path d="M10.0833 1.8335C14.6373 1.8335 18.3333 5.5295 18.3333 10.0835C18.3333 14.6375 14.6373 18.3335 10.0833 18.3335C5.52931 18.3335 1.83331 14.6375 1.83331 10.0835C1.83331 5.5295 5.52931 1.8335 10.0833 1.8335ZM10.0833 16.5002C13.6281 16.5002 16.5 13.6282 16.5 10.0835C16.5 6.53783 13.6281 3.66683 10.0833 3.66683C6.53765 3.66683 3.66665 6.53783 3.66665 10.0835C3.66665 13.6282 6.53765 16.5002 10.0833 16.5002ZM17.8612 16.5652L20.4545 19.1576L19.1574 20.4547L16.5651 17.8614L17.8612 16.5652Z" fill="#2D2D2D"/>
</g>
<defs>
<clipPath id="clip0_207_322">
<rect width="22" height="22" fill="white"/>
</clipPath>
</defs>
</svg>
