<svg width="28" height="29" viewBox="0 0 28 29" fill="none" xmlns="http://www.w3.org/2000/svg">
<g clip-path="url(#clip0_207_711)" filter="url(#filter0_d_207_711)">
<path d="M13.0833 1.8335C17.6373 1.8335 21.3333 5.5295 21.3333 10.0835C21.3333 14.6375 17.6373 18.3335 13.0833 18.3335C8.52934 18.3335 4.83334 14.6375 4.83334 10.0835C4.83334 5.5295 8.52934 1.8335 13.0833 1.8335ZM13.0833 16.5002C16.6281 16.5002 19.5 13.6282 19.5 10.0835C19.5 6.53783 16.6281 3.66683 13.0833 3.66683C9.53767 3.66683 6.66667 6.53783 6.66667 10.0835C6.66667 13.6282 9.53767 16.5002 13.0833 16.5002ZM20.8613 16.5652L23.4545 19.1576L22.1574 20.4547L19.5651 17.8614L20.8613 16.5652Z" fill="#2FDBBC"/>
</g>
<defs>
<filter id="filter0_d_207_711" x="-1" y="0" width="30" height="30" filterUnits="userSpaceOnUse" color-interpolation-filters="sRGB">
<feFlood flood-opacity="0" result="BackgroundImageFix"/>
<feColorMatrix in="SourceAlpha" type="matrix" values="0 0 0 0 0 0 0 0 0 0 0 0 0 0 0 0 0 0 127 0" result="hardAlpha"/>
<feOffset dy="4"/>
<feGaussianBlur stdDeviation="2"/>
<feComposite in2="hardAlpha" operator="out"/>
<feColorMatrix type="matrix" values="0 0 0 0 0 0 0 0 0 0 0 0 0 0 0 0 0 0 0.25 0"/>
<feBlend mode="normal" in2="BackgroundImageFix" result="effect1_dropShadow_207_711"/>
<feBlend mode="normal" in="SourceGraphic" in2="effect1_dropShadow_207_711" result="shape"/>
</filter>
<clipPath id="clip0_207_711">
<rect width="22" height="22" fill="white" transform="translate(3)"/>
</clipPath>
</defs>
</svg>
