<svg width="22" height="22" viewBox="0 0 22 22" fill="none" xmlns="http://www.w3.org/2000/svg">
<g clip-path="url(#clip0_70_1064)">
<path d="M20.1667 6.41667H21.0833V15.5833H20.1667V18.3333C20.1667 18.5764 20.0701 18.8096 19.8982 18.9815C19.7263 19.1534 19.4931 19.25 19.25 19.25H2.75C2.50688 19.25 2.27373 19.1534 2.10182 18.9815C1.92991 18.8096 1.83333 18.5764 1.83333 18.3333V3.66667C1.83333 3.42355 1.92991 3.19039 2.10182 3.01849C2.27373 2.84658 2.50688 2.75 2.75 2.75H19.25C19.4931 2.75 19.7263 2.84658 19.8982 3.01849C20.0701 3.19039 20.1667 3.42355 20.1667 3.66667V6.41667ZM18.3333 15.5833H12.8333C11.6178 15.5833 10.452 15.1004 9.59243 14.2409C8.73288 13.3814 8.25 12.2156 8.25 11C8.25 9.78442 8.73288 8.61864 9.59243 7.75909C10.452 6.89955 11.6178 6.41667 12.8333 6.41667H18.3333V4.58333H3.66667V17.4167H18.3333V15.5833ZM19.25 13.75V8.25H12.8333C12.104 8.25 11.4045 8.53973 10.8888 9.05546C10.3731 9.57118 10.0833 10.2707 10.0833 11C10.0833 11.7293 10.3731 12.4288 10.8888 12.9445C11.4045 13.4603 12.104 13.75 12.8333 13.75H19.25ZM12.8333 10.0833H15.5833V11.9167H12.8333V10.0833Z" fill="#2FDBBC"/>
</g>
<defs>
<clipPath id="clip0_70_1064">
<rect width="22" height="22" fill="white"/>
</clipPath>
</defs>
</svg>
