<svg width="20" height="17" viewBox="0 0 20 17" fill="none" xmlns="http://www.w3.org/2000/svg">
<path d="M13.0855 0.151367L16.0289 5.24987H19.1667V7.0832H18.0969L17.403 15.4093C17.3839 15.6383 17.2795 15.8519 17.1104 16.0076C16.9413 16.1633 16.7199 16.2497 16.49 16.2499H3.50999C3.28014 16.2497 3.05872 16.1633 2.88961 16.0076C2.72051 15.8519 2.61607 15.6383 2.59699 15.4093L1.90216 7.0832H0.833328V5.24987H3.97016L6.91449 0.151367L8.50216 1.06803L6.08766 5.24987H13.9114L11.4978 1.06803L13.0855 0.151367ZM16.2572 7.0832H3.74191L4.35333 14.4165H15.6457L16.2572 7.0832ZM10.9167 8.91653V12.5832H9.08333V8.91653H10.9167ZM7.25 8.91653V12.5832H5.41666V8.91653H7.25ZM14.5833 8.91653V12.5832H12.75V8.91653H14.5833Z" fill="#2FDBBC"/>
</svg>
