<svg width="20" height="20" viewBox="0 0 20 20" fill="none" xmlns="http://www.w3.org/2000/svg">
<path d="M14.5833 4.50016H19.1667V6.3335H17.3333V18.2502C17.3333 18.4933 17.2368 18.7264 17.0649 18.8983C16.893 19.0703 16.6598 19.1668 16.4167 19.1668H3.58334C3.34023 19.1668 3.10707 19.0703 2.93516 18.8983C2.76325 18.7264 2.66668 18.4933 2.66668 18.2502V6.3335H0.833344V4.50016H5.41668V1.75016C5.41668 1.50705 5.51325 1.27389 5.68516 1.10198C5.85707 0.930073 6.09023 0.833496 6.33334 0.833496H13.6667C13.9098 0.833496 14.143 0.930073 14.3149 1.10198C14.4868 1.27389 14.5833 1.50705 14.5833 1.75016V4.50016ZM15.5 6.3335H4.50001V17.3335H15.5V6.3335ZM11.2962 11.8335L12.9168 13.4542L11.6207 14.7503L10 13.1297L8.37934 14.7503L7.08318 13.4542L8.70384 11.8335L7.08318 10.2128L8.37934 8.91666L10 10.5373L11.6207 8.91666L12.9168 10.2128L11.2962 11.8335ZM7.25001 2.66683V4.50016H12.75V2.66683H7.25001Z" fill="#F77272"/>
</svg>
