<svg width="18" height="18" viewBox="0 0 18 18" fill="none" xmlns="http://www.w3.org/2000/svg">
<g id="Basket" clip-path="url(#clip0_170_774)">
<path id="Vector" d="M11.5245 2.57861L13.9328 6.75011H16.5V8.25011H15.6248L15.057 15.0624C15.0414 15.2498 14.9559 15.4245 14.8176 15.5519C14.6792 15.6793 14.4981 15.75 14.31 15.7501H3.69C3.50194 15.75 3.32077 15.6793 3.18242 15.5519C3.04406 15.4245 2.95861 15.2498 2.943 15.0624L2.3745 8.25011H1.5V6.75011H4.0665L6.4755 2.57861L7.7745 3.32861L5.799 6.75011H12.2003L10.2255 3.32861L11.5245 2.57861ZM14.1195 8.25011H3.87975L4.38 14.2501H13.6193L14.1195 8.25011ZM9.75 9.75011V12.7501H8.25V9.75011H9.75ZM6.75 9.75011V12.7501H5.25V9.75011H6.75ZM12.75 9.75011V12.7501H11.25V9.75011H12.75Z" fill="white"/>
</g>
<defs>
<clipPath id="clip0_170_774">
<rect width="18" height="18" fill="white"/>
</clipPath>
</defs>
</svg>
