<svg width="22" height="22" viewBox="0 0 22 22" fill="none" xmlns="http://www.w3.org/2000/svg">
<g clip-path="url(#clip0_70_1151)">
<path d="M4.58333 20.1668C4.34022 20.1668 4.10706 20.0703 3.93515 19.8983C3.76325 19.7264 3.66667 19.4933 3.66667 19.2502V2.75016C3.66667 2.50705 3.76325 2.27389 3.93515 2.10198C4.10706 1.93007 4.34022 1.8335 4.58333 1.8335H17.4167C17.6598 1.8335 17.8929 1.93007 18.0648 2.10198C18.2368 2.27389 18.3333 2.50705 18.3333 2.75016V5.50016H16.5V3.66683H5.5V18.3335H16.5V16.5002H18.3333V19.2502C18.3333 19.4933 18.2368 19.7264 18.0648 19.8983C17.8929 20.0703 17.6598 20.1668 17.4167 20.1668H4.58333ZM16.5 14.6668V11.9168H10.0833V10.0835H16.5V7.3335L21.0833 11.0002L16.5 14.6668Z" fill="#2FDBBC"/>
</g>
<defs>
<clipPath id="clip0_70_1151">
<rect width="22" height="22" fill="white"/>
</clipPath>
</defs>
</svg>
